<svg width="24" height="24" xmlns="http://www.w3.org/2000/svg">
 <title>Google Maps icon</title>

 <g>
  <title>background</title>
  <rect fill="none" id="canvas_background" height="602" width="802" y="-1" x="-1"/>
 </g>
 <g>
  <title>Layer 1</title>
  <path fill="#ffffff" id="svg_1" d="m19.527,4.799c1.212,2.608 0.937,5.678 -0.405,8.173c-1.101,2.047 -2.744,3.74 -4.098,5.614c-0.619,0.858 -1.244,1.75 -1.669,2.727c-0.141,0.325 -0.263,0.658 -0.383,0.992c-0.121,0.333 -0.224,0.673 -0.34,1.008c-0.109,0.314 -0.236,0.684 -0.627,0.687l-0.007,0c-0.466,-0.001 -0.579,-0.53 -0.695,-0.887c-0.284,-0.874 -0.581,-1.713 -1.019,-2.525c-0.51,-0.944 -1.145,-1.817 -1.79,-2.671l11.033,-13.118zm-10.982,2.906l-3.959,4.707c0.724,1.54 1.821,2.863 2.871,4.18c0.247,0.31 0.494,0.622 0.737,0.936l4.984,-5.925l-0.029,0.01c-1.741,0.601 -3.691,-0.291 -4.392,-1.987a3.377,3.377 0 0 1 -0.209,-0.716c-0.063,-0.437 -0.077,-0.761 -0.004,-1.198l0.001,-0.007zm-3.053,-4.556l-0.003,0.004c-1.947,2.466 -2.281,5.88 -1.117,8.77l4.785,-5.689l-0.058,-0.05l-3.607,-3.035zm9.169,-2.713l-3.838,4.563a0.295,0.295 0 0 1 0.027,-0.01c1.6,-0.551 3.403,0.15 4.22,1.626c0.176,0.319 0.323,0.683 0.377,1.045c0.068,0.446 0.085,0.773 0.012,1.22l-0.003,0.016l3.836,-4.561a8.382,8.382 0 0 0 -4.622,-3.896l-0.009,-0.003zm-5.195,5.432l4.696,-5.583l-0.047,-0.012a8.31,8.31 0 0 0 -2.129,-0.273a8.439,8.439 0 0 0 -6.169,2.766l-0.016,0.018l3.665,3.084z"/>
 </g>
</svg>