<svg width="24" height="24" xmlns="http://www.w3.org/2000/svg">
 <title>Spotify icon</title>

 <g>
  <title>background</title>
  <rect fill="none" id="canvas_background" height="602" width="802" y="-1" x="-1"/>
 </g>
 <g>
  <title>Layer 1</title>
  <path fill="#ffffff" id="svg_1" d="m12,0c-6.6,0 -12,5.4 -12,12s5.4,12 12,12s12,-5.4 12,-12s-5.34,-12 -12,-12zm5.521,17.34c-0.24,0.359 -0.66,0.48 -1.021,0.24c-2.82,-1.74 -6.36,-2.101 -10.561,-1.141c-0.418,0.122 -0.779,-0.179 -0.899,-0.539c-0.12,-0.421 0.18,-0.78 0.54,-0.9c4.56,-1.021 8.52,-0.6 11.64,1.32c0.42,0.18 0.479,0.659 0.301,1.02zm1.44,-3.3c-0.301,0.42 -0.841,0.6 -1.262,0.3c-3.239,-1.98 -8.159,-2.58 -11.939,-1.38c-0.479,0.12 -1.02,-0.12 -1.14,-0.6c-0.12,-0.48 0.12,-1.021 0.6,-1.141c4.38,-1.319 9.78,-0.658 13.5,1.621c0.361,0.181 0.54,0.78 0.241,1.2zm0.12,-3.36c-3.841,-2.28 -10.261,-2.52 -13.921,-1.379c-0.6,0.179 -1.2,-0.181 -1.38,-0.721c-0.18,-0.601 0.18,-1.2 0.72,-1.381c4.26,-1.26 11.28,-1.02 15.721,1.621c0.539,0.3 0.719,1.02 0.419,1.56c-0.299,0.421 -1.02,0.599 -1.559,0.3z"/>
 </g>
</svg>